<?xml version="1.0" standalone="no"?>
<!DOCTYPE svg PUBLIC "-//W3C//DTD SVG 20010904//EN"
 "http://www.w3.org/TR/2001/REC-SVG-20010904/DTD/svg10.dtd">
<svg version="1.0" xmlns="http://www.w3.org/2000/svg"
 width="59.000000pt" height="50.000000pt" viewBox="0 0 59.000000 50.000000"
 preserveAspectRatio="xMidYMid meet">

<g transform="translate(0.000000,50.000000) scale(0.100000,-0.100000)"
fill="#000000" stroke="none">
<path d="M61 476 c-45 -25 -50 -50 -51 -229 0 -97 4 -176 10 -188 24 -43 57
-49 274 -49 113 0 216 4 230 10 47 17 58 51 64 179 7 164 -3 227 -38 263 l-28
28 -219 0 c-162 -1 -224 -4 -242 -14z m243 -48 c3 -7 7 -30 10 -52 5 -36 4
-38 -18 -34 -23 5 -24 1 -36 -99 l-13 -103 -29 0 c-21 0 -31 6 -35 20 -4 15
-14 20 -39 20 -27 0 -34 4 -34 20 0 17 7 20 50 20 33 0 50 -4 51 -12 2 -21 16
51 29 145 11 82 13 87 36 87 14 0 26 -6 28 -12z m21 -170 c2 -7 7 -35 11 -63
7 -45 8 -47 13 -20 6 28 9 30 59 33 32 2 52 -1 52 -7 0 -6 -18 -11 -39 -11
l-40 0 -6 -47 c-9 -67 -12 -73 -33 -73 -16 0 -20 13 -30 89 -7 48 -12 93 -12
100 0 15 20 14 25 -1z"/>
</g>
</svg>
